<svg width="64" height="64" viewBox="0 0 64 64" fill="none" xmlns="http://www.w3.org/2000/svg">
<g id="Arrows / right arrow">
<path id="Vector" d="M39.5468 30.1067L28.2401 18.8C27.9922 18.5501 27.6973 18.3517 27.3723 18.2163C27.0473 18.0809 26.6988 18.0112 26.3468 18.0112C25.9947 18.0112 25.6462 18.0809 25.3212 18.2163C24.9963 18.3517 24.7013 18.5501 24.4534 18.8C23.9568 19.2997 23.678 19.9755 23.678 20.68C23.678 21.3845 23.9568 22.0604 24.4534 22.56L33.8934 32L24.4534 41.44C23.9568 41.9397 23.678 42.6155 23.678 43.32C23.678 44.0245 23.9568 44.7004 24.4534 45.2C24.7026 45.4472 24.9981 45.6427 25.323 45.7754C25.6479 45.9081 25.9958 45.9754 26.3468 45.9734C26.6977 45.9754 27.0456 45.9081 27.3705 45.7754C27.6954 45.6427 27.9909 45.4472 28.2401 45.2L39.5468 33.8934C39.7967 33.6455 39.9951 33.3505 40.1305 33.0256C40.2659 32.7006 40.3356 32.3521 40.3356 32C40.3356 31.648 40.2659 31.2994 40.1305 30.9745C39.9951 30.6495 39.7967 30.3546 39.5468 30.1067Z" fill="#10B981"/>
</g>
</svg>
