<svg width="21" height="21" viewBox="0 0 21 21" fill="none" xmlns="http://www.w3.org/2000/svg">
<g id="4 - Filled / search">
<path id="search-Filled" d="M18.9936 17.7563L15.022 13.7847C16.0221 12.5177 16.625 10.9226 16.625 9.1875C16.625 5.08638 13.2886 1.75 9.1875 1.75C5.08638 1.75 1.75 5.08638 1.75 9.1875C1.75 13.2886 5.08638 16.625 9.1875 16.625C10.9235 16.625 12.5177 16.023 13.7847 15.022L17.7564 18.9937C17.927 19.1643 18.151 19.25 18.375 19.25C18.599 19.25 18.823 19.1643 18.9936 18.9937C19.3358 18.6515 19.3358 18.0985 18.9936 17.7563ZM3.5 9.1875C3.5 6.0515 6.0515 3.5 9.1875 3.5C12.3235 3.5 14.875 6.0515 14.875 9.1875C14.875 12.3235 12.3235 14.875 9.1875 14.875C6.0515 14.875 3.5 12.3235 3.5 9.1875Z" fill="white"/>
</g>
</svg>
